<?xml version="1.0" standalone="no"?><!DOCTYPE svg PUBLIC "-//W3C//DTD SVG 1.1//EN" "http://www.w3.org/Graphics/SVG/1.1/DTD/svg11.dtd"><svg t="1493112681285" class="icon" style="" viewBox="0 0 1171 1024" version="1.1" xmlns="http://www.w3.org/2000/svg" p-id="3108" xmlns:xlink="http://www.w3.org/1999/xlink" width="146.375" height="128"><defs><style type="text/css"></style></defs><path d="M83.591834 167.183696C129.734532 167.183696 167.183675 129.734554 167.183675 83.591856 167.183675 37.449165 129.734532 2.2e-05 83.591834 2.2e-05 37.449143 2.2e-05 0 37.449165 0 83.591856 0 129.734554 37.449143 167.183696 83.591834 167.183696M83.591834 585.142878C129.734532 585.142878 167.183675 547.693735 167.183675 501.551041 167.183675 455.408347 129.734532 417.959205 83.591834 417.959205 37.449143 417.959205 0 455.408347 0 501.551041 0 547.693735 37.449143 585.142878 83.591834 585.142878M83.591834 835.918388C37.449143 835.918388 0 873.367531 0 919.510225 0 965.652919 37.449143 1003.102062 83.591834 1003.102062 129.734532 1003.102062 167.183675 965.652919 167.183675 919.510225 167.183675 873.367531 129.734532 835.918388 83.591834 835.918388M417.959183 167.183696 1086.693878 167.183696C1132.836571 167.183696 1170.285714 129.734554 1170.285714 83.591856 1170.285714 37.449165 1132.836571 2.2e-05 1086.693878 2.2e-05L417.959183 2.2e-05C371.816492 2.2e-05 334.367349 37.449165 334.367349 83.591856 334.367349 129.734554 371.816492 167.183696 417.959183 167.183696M417.959183 585.142878 1086.693878 585.142878C1132.836571 585.142878 1170.285714 547.693735 1170.285714 501.551041 1170.285714 455.408347 1132.836571 417.959205 1086.693878 417.959205L417.959183 417.959205C371.816492 417.959205 334.367349 455.408347 334.367349 501.551041 334.367349 547.693735 371.816492 585.142878 417.959183 585.142878M417.959183 1003.102062 1086.693878 1003.102062C1132.836571 1003.102062 1170.285714 965.652919 1170.285714 919.510225 1170.285714 873.367531 1132.836571 835.918388 1086.693878 835.918388L417.959183 835.918388C371.816492 835.918388 334.367349 873.367531 334.367349 919.510225 334.367349 965.652919 371.816492 1003.102062 417.959183 1003.102062" p-id="3109"></path></svg>