<?xml version="1.0" standalone="no"?><!DOCTYPE svg PUBLIC "-//W3C//DTD SVG 1.1//EN" "http://www.w3.org/Graphics/SVG/1.1/DTD/svg11.dtd"><svg t="1493112642339" class="icon" style="" viewBox="0 0 1024 1024" version="1.1" xmlns="http://www.w3.org/2000/svg" p-id="2420" xmlns:xlink="http://www.w3.org/1999/xlink" width="128" height="128"><defs><style type="text/css"></style></defs><path d="M871.386672 582.175269 733.859435 582.175269l-76.194356-128.513956 9.948583 0c24.460088 0 44.217061-19.798928 44.217061-44.23855l0.001023 0L711.831746 199.272509c0-24.438599-19.756973-44.237527-44.217061-44.237527L387.406842 155.034982c-24.438599 0-44.197618 19.797905-44.197618 44.237527l0 210.150254c0 24.437575 19.759019 44.23855 44.197618 44.23855l9.982352 0-76.18617 128.513956L183.655322 582.175269c-22.399149 0-40.558741 18.159592-40.558741 40.558741l0 172.314531c0 22.35924 18.158568 40.557718 40.558741 40.557718l209.491245 0c22.438035 0 40.557718-18.198477 40.557718-40.557718l0-172.314531c0-22.399149-18.119683-40.558741-40.557718-40.558741l-0.5137 0 76.18003-128.513956 117.426433 0 76.197426 128.513956-0.542352 0c-22.400173 0-40.558741 18.159592-40.558741 40.558741l0 172.314531c0 22.35924 18.158568 40.557718 40.558741 40.557718L871.386672 835.606259c22.399149 0 40.558741-18.198477 40.558741-40.557718l0-172.314531C911.94439 600.334861 893.784798 582.175269 871.386672 582.175269z" p-id="2421"></path></svg>